PathFileType	4	(X/Y/Z)	5_coords_data.trc
DataRate	CameraRate	NumFrames	NumMarkers	Units	OrigDataRate	OrigDataStartFrame	OrigNumFrames
30.0	30.0	7	21	m	30.0	59	68
Frame#	Time	THUMB_TIP	THUMB_IP	THUMB_MCP	THUMB_CMC	INDEX_TIP	INDEX_DIP	INDEX_PIP	INDEX_MCP	MIDDLE_TIP	MIDDLE_DIP	MIDDLE_PIP	MIDDLE_MCP	RING_TIP	RING_DIP	RING_PIP	RING_MCP	PINKY_TIP	PINKY_DIP	PINKY_PIP	PINKY_MCP	WRIST
X1	Y1	Z1	X2	Y2	Z2	X3	Y3	Z3	X4	Y4	Z4	X5	Y5	Z5	X6	Y6	Z6	X7	Y7	Z7	X8	Y8	Z8	X9	Y9	Z9	X10	Y10	Z10	X11	Y11	Z11	X12	Y12	Z12	X13	Y13	Z13	X14	Y14	Z14	X15	Y15	Z15	X16	Y16	Z16	X17	Y17	Z17	X18	Y18	Z18	X19	Y19	Z19	X20	Y20	Z20	X21	Y21	Z21
58	1.9333333333333333	-0.02786269950866699	-0.1299759979248047	1.0021500244140624	-0.030886100769042968	-0.1096780014038086	1.017239990234375	-0.04563240051269531	-0.09632099914550782	1.0403699951171874	-0.04448720169067383	-0.06524759674072265	1.05402001953125	-0.033836700439453124	-0.08117939758300781	0.915301025390625	-0.03830179977416992	-0.08094439697265625	0.9380579833984375	-0.04413840103149414	-0.07943070220947265	0.9609099731445313	-0.050636001586914066	-0.07493550109863281	0.9967479858398437	-0.029334299087524413	-0.04621469879150391	0.903552978515625	-0.032795398712158204	-0.05113800048828125	0.92756201171875	-0.039513999938964844	-0.05435929870605469	0.9559429931640625	-0.04780459976196289	-0.054580398559570316	0.9918829956054688	-0.03617359924316406	-0.024923500061035157	0.9103469848632812	-0.03649810028076172	-0.028296199798583985	0.9347319946289062	-0.039815601348876954	-0.031719999313354494	0.9611510009765625	-0.04269300079345703	-0.03724449920654297	0.9955120239257812	-0.03519110107421875	0.0011608200073242182	0.9405460205078126	-0.03568320083618164	-0.005952859878540039	0.9601719970703125	-0.0364026985168457	-0.012580499649047852	0.977114013671875	-0.035913898468017576	-0.022241500854492186	1.0007899780273437	-0.056801200866699215	-0.03426900100708008	1.0693699951171876
59	1.9666666666666666	-0.028947799682617188	-0.130531005859375	1.0029199829101563	-0.03138640022277832	-0.10999900054931641	1.0176900024414062	-0.045864700317382816	-0.09627259826660156	1.040699951171875	-0.04476850128173828	-0.06505590057373047	1.0542900390625	-0.032929000854492185	-0.08182230377197265	0.9157169799804687	-0.03749990081787109	-0.08143759918212891	0.9384169921875	-0.04354460144042969	-0.07978559875488281	0.9612429809570312	-0.05032569885253906	-0.07504850006103515	0.9970239868164062	-0.027841699600219726	-0.04678929901123047	0.9039010009765625	-0.031614500045776366	-0.05164609909057617	0.9279760131835938	-0.03860380172729492	-0.054722698211669925	0.9562730102539062	-0.047393299102783205	-0.0546952018737793	0.9920910034179687	-0.03499100112915039	-0.025427299499511717	0.910489013671875	-0.035425098419189456	-0.028679899215698242	0.9348670043945313	-0.03902529907226562	-0.03197010040283203	0.9612069702148438	-0.04225080108642578	-0.0373051986694336	0.9957150268554688	-0.0343291015625	0.0009228159785270691	0.9405189819335937	-0.03485770034790039	-0.006163479804992676	0.9600590209960937	-0.03581579971313477	-0.012752699851989745	0.97714599609375	-0.03555550003051758	-0.0222721004486084	1.0008599853515625	-0.05725099945068359	-0.03397019958496094	1.0694200439453125
60	2.0	-0.029803300857543947	-0.1308179931640625	1.0034099731445312	-0.03185169982910156	-0.11014299774169922	1.0180499877929687	-0.04616519927978516	-0.09625830078125	1.0409000244140625	-0.04477209854125976	-0.06499849700927735	1.0544200439453124	-0.03146870040893555	-0.08172889709472657	0.9161160278320313	-0.0363114013671875	-0.08136260223388672	0.9388079833984375	-0.04261389923095703	-0.07970680236816406	0.9615180053710938	-0.04980950164794922	-0.07496869659423828	0.9972639770507813	-0.02600160026550293	-0.04650339889526367	0.9044869995117187	-0.030041500091552733	-0.051452701568603515	0.9283989868164062	-0.03741669845581055	-0.054631698608398435	0.9566079711914063	-0.04677529907226562	-0.05462369918823242	0.9922880249023438	-0.033307701110839846	-0.025202299118041994	0.9109630126953125	-0.033967899322509765	-0.028514400482177734	0.9352570190429688	-0.03784199905395508	-0.03188839912414551	0.9615540161132813	-0.0416952018737793	-0.03727000045776367	0.9959810180664063	-0.033157398223876956	0.0011297299861907958	0.9410809936523438	-0.033974098205566405	-0.006009479999542236	0.9606229858398437	-0.03502859878540039	-0.012623600006103516	0.97747998046875	-0.035037700653076174	-0.022238100051879883	1.0013200073242188	-0.057217498779296876	-0.03392459869384765	1.06947998046875
61	2.033333333333333	-0.02932500076293945	-0.13081199645996094	1.0040399780273437	-0.031431699752807615	-0.11005999755859375	1.0185800170898438	-0.04577880096435547	-0.09614309692382812	1.041239990234375	-0.044600601196289065	-0.06477269744873047	1.05472998046875	-0.031026599884033203	-0.08163390350341797	0.9163369750976562	-0.03581349945068359	-0.08129720306396485	0.9389669799804687	-0.04211280059814453	-0.0796344985961914	0.9617860107421875	-0.049413299560546874	-0.07487999725341797	0.9975089721679687	-0.0251072998046875	-0.04639849853515625	0.9047750244140625	-0.02928700065612793	-0.0513401985168457	0.9287119750976562	-0.03677470016479492	-0.054524898529052734	0.9568300170898437	-0.04648099899291992	-0.05447460174560547	0.9925859985351563	-0.03221319961547851	-0.025092199325561525	0.911197021484375	-0.03323239898681641	-0.02840449905395508	0.935635986328125	-0.03715919876098633	-0.03172050094604492	0.961822998046875	-0.041321800231933596	-0.03708369827270508	0.9962730102539062	-0.03246310043334961	0.001236179947853088	0.941302978515625	-0.033391498565673826	-0.005875639915466309	0.960864013671875	-0.03456710052490235	-0.012477499961853027	0.9778109741210937	-0.03471289825439453	-0.0220531005859375	1.0015999755859375	-0.05710499954223633	-0.03370220184326172	1.0696800537109374
62	2.066666666666667	-0.028078800201416017	-0.13060899353027344	1.004780029296875	-0.030415300369262696	-0.10984700012207031	1.0192000122070313	-0.045203899383544924	-0.0959541015625	1.041699951171875	-0.044330001831054684	-0.06456410217285156	1.055	-0.03016080093383789	-0.08194400024414063	0.9168040161132812	-0.0349817008972168	-0.08153559875488281	0.9394249877929688	-0.04134820175170899	-0.0798313980102539	0.9622100219726563	-0.04887979888916016	-0.07489700317382812	0.99793701171875	-0.023850900650024414	-0.04682099914550781	0.90525	-0.028203800201416017	-0.05162319946289062	0.929155029296875	-0.0359541015625	-0.05463570022583008	0.9572639770507813	-0.04595380020141602	-0.05447809982299805	0.9929180297851562	-0.031140300750732423	-0.025409799575805664	0.9114530029296875	-0.03220140075683594	-0.028619400024414064	0.9357440185546875	-0.03656039810180664	-0.03181800079345703	0.9621439819335937	-0.04097980117797852	-0.03701459884643555	0.99660498046875	-0.03196240043640137	0.001140419960021972	0.9414630126953125	-0.03300289916992188	-0.005906109809875488	0.9609920043945313	-0.034194801330566404	-0.012469200134277344	0.9779400024414062	-0.03446649932861328	-0.021916400909423827	1.0017899780273438	-0.05704980087280274	-0.03353900146484375	1.069949951171875
63	2.1	-0.027178300857543945	-0.13041000366210936	1.0051699829101564	-0.029730499267578123	-0.10958300018310548	1.0196099853515626	-0.04457049942016601	-0.09567669677734375	1.0420899658203124	-0.04391360092163086	-0.06434750366210938	1.0553399658203124	-0.028820100784301757	-0.08186990356445313	0.9172459716796875	-0.03381740188598633	-0.0814614028930664	0.9398489990234375	-0.04028210067749023	-0.07973580169677734	0.9625170288085938	-0.048277198791503904	-0.07481169891357421	0.99822998046875	-0.023081300735473632	-0.046697898864746096	0.9056199951171875	-0.027500499725341798	-0.05150859832763672	0.9295180053710937	-0.03532369995117188	-0.05452640151977539	0.9575579833984375	-0.04554779815673828	-0.054369800567626955	0.993155029296875	-0.030519500732421875	-0.025393299102783203	0.91175	-0.03178240013122559	-0.028570199966430666	0.93606201171875	-0.036165000915527344	-0.031742300033569336	0.962343994140625	-0.04072700119018555	-0.036855899810791015	0.9968369750976562	-0.03169529914855957	0.001277719974517822	0.941677978515625	-0.03272190093994141	-0.005749000072479248	0.9612860107421874	-0.03390129852294922	-0.012275600433349609	0.97822802734375	-0.0342593002319336	-0.021722000122070314	1.0020499877929687	-0.05675510025024414	-0.03336629867553711	1.070239990234375
64	2.1333333333333333	-0.026661500930786133	-0.1301529998779297	1.0056099853515625	-0.029488100051879882	-0.10932900238037109	1.02	-0.044362499237060544	-0.09553700256347657	1.042449951171875	-0.04374330139160156	-0.06412529754638673	1.0556400146484375	-0.028452699661254882	-0.08172979736328125	0.9175900268554688	-0.03353200149536133	-0.08130359649658203	0.9401640014648438	-0.04009230041503906	-0.07958260345458984	0.9628060302734375	-0.048184200286865236	-0.07460859680175781	0.9984310302734375	-0.022417600631713868	-0.04661819839477539	0.9060250244140625	-0.026951000213623046	-0.051406700134277346	0.9298619995117188	-0.0349656982421875	-0.05438750076293945	0.9577919921875	-0.0454177017211914	-0.05414670181274414	0.9934130249023437	-0.029521299362182618	-0.025369800567626954	0.9120230102539062	-0.03101180076599121	-0.02846380043029785	0.9364530029296875	-0.03559510040283203	-0.031612899780273436	0.962655029296875	-0.04053630065917969	-0.0366234016418457	0.9971530151367187	-0.030809099197387696	0.001302330017089843	0.9418619995117188	-0.03209040069580078	-0.005678170204162598	0.9614920043945312	-0.03353739929199219	-0.012180700302124023	0.9784320068359375	-0.03393889999389649	-0.02155459976196289	1.0022999877929688	-0.056696300506591794	-0.03306420135498047	1.0705899658203124
